<svg xmlns="http://www.w3.org/2000/svg" fill="none" viewBox="0 0 24 24" id="Schedule-Send--Streamline-Outlined-Material" height="24" width="24"><desc>Schedule Send Streamline Icon: https://streamlinehq.com</desc><path fill="#000000" d="M3 20V4l16.6 7h-1.475c-0.4 0 -0.77915 0.00835 -1.1375 0.025 -0.35835 0.01665 -0.67085 0.05 -0.9375 0.1L4.5 6.25v4.2L10.55 12 4.5 13.5v4.175l7.05 -2.95c-0.13335 0.28335 -0.24585 0.6125 -0.3375 0.9875 -0.09165 0.375 -0.15415 0.67915 -0.1875 0.9125L3 20Zm14.25 2c-1.3 0 -2.41665 -0.4625 -3.35 -1.3875 -0.93335 -0.925 -1.4 -2.0375 -1.4 -3.3375 0 -1.31665 0.46665 -2.44165 1.4 -3.375 0.93335 -0.93335 2.05 -1.4 3.35 -1.4 1.3 0 2.41665 0.46665 3.35 1.4 0.93335 0.93335 1.4 2.05835 1.4 3.375 0 1.3 -0.46665 2.4125 -1.4 3.3375C19.66665 21.5375 18.55 22 17.25 22Zm1.75 -2.15 0.725 -0.775 -2.05 -2.05v-3H16.65V17.5l2.35 2.35ZM4.5 14.725V6.25v11.425Z" stroke-width="0.5"></path></svg>